<svg width="512" height="512" xmlns="http://www.w3.org/2000/svg">

 <title/>
 <g>
  <title>background</title>
  <rect fill="none" id="canvas_background" height="402" width="582" y="-1" x="-1"/>
 </g>
 <g>
  <title>Layer 1</title>
  <path fill="#009cd6" id="svg_1" d="m386.07,179.91l0,152.18a54,54 0 0 1 -54,54l-152.16,0a54,54 0 0 1 -54,-54l0,-152.18a54,54 0 0 1 54,-54l152.18,0a54,54 0 0 1 54,54l-0.02,0z" class="cls-1"/>
  <path fill="#0598c6" id="svg_2" d="m386.07,179.91l0,152.18a54,54 0 0 1 -54,54l-152.16,0a53.89,53.89 0 0 1 -40.58,-18.37l228.37,-228.39a53.89,53.89 0 0 1 18.37,40.58z" class="cls-2"/>
  <rect fill="#ffffff" id="svg_3" y="225.03" x="176.52" width="35.4" height="115.04" class="cls-3"/>
  <path fill="#ffffff" id="svg_4" d="m304.34,225c-34.82,0 -42.28,18.48 -42.28,18.48l0,-18.48l-35.39,0l0,115l35.39,0l0,-65.08c3,-10.7 12.29,-19.49 24.87,-19.49c15.49,0 17.41,19.91 17.41,19.91l0,64.72l35.4,0l0,-79.64a35.4,35.4 0 0 0 -35.4,-35.42z" class="cls-3"/>
  <circle fill="#ffffff" id="svg_5" r="21.96" cy="193.89" cx="194.22" class="cls-3"/>
 </g>
</svg>